<svg xmlns="http://www.w3.org/2000/svg" width="44" height="44" viewBox="0 0 44 44" role="img" aria-label="LinkedIn">
  <rect width="44" height="44" rx="12" fill="#0A66C2"/>
  <g fill="#ffffff" transform="translate(8 8)">
    <path d="M2.4 8.6h4.2v13H2.4zM4.5 1.8c1.25 0 2.2 1.02 2.2 2.17 0 1.23-.98 2.2-2.2 2.2-1.25 0-2.2-.98-2.2-2.2 0-1.15.95-2.17 2.2-2.17z"/>
    <path d="M9.4 8.6h4v1.77h.06c.56-1.06 1.94-2.18 4-2.18 4.27 0 5.05 2.81 5.05 6.47v6.94h-4.2v-6.16c0-1.47-.03-3.36-2.05-3.36-2.06 0-2.38 1.6-2.38 3.25v6.27H9.4z"/>
  </g>
</svg>