<svg xmlns="http://www.w3.org/2000/svg" width="44" height="44" viewBox="0 0 44 44" role="img" aria-label="Medium">
  <rect width="44" height="44" rx="12" fill="#000000"/>
  <g fill="#ffffff" transform="translate(8 8)">
    <path d="M4.2 5.6c2.28 0 4.2 1.84 4.2 4.15 0 2.29-1.92 4.15-4.2 4.15S0 12.04 0 9.75C0 7.44 1.92 5.6 4.2 5.6zm7.84.38c1.92 0 3.47 1.66 3.47 3.77 0 2.1-1.55 3.77-3.47 3.77-1.91 0-3.46-1.67-3.46-3.77 0-2.11 1.55-3.77 3.46-3.77z"/>
    <path d="M16.86 6.1c1.35 0 2.45 1.97 2.45 4.4 0 2.44-1.1 4.4-2.45 4.4-1.36 0-2.46-1.96-2.46-4.4 0-2.43 1.1-4.4 2.46-4.4z"/>
    <path d="M23.7 6.6h-.8c-.5 0-.9.4-.9.9v8.4c0 .5.4.9.9.9h.8v.5h-4.7v-.5h.7c.5 0 .9-.4.9-.9V9.1l-3.2 8.3h-.8l-3.7-8.3v6.3c0 1 .4 1.4 1.2 1.4h.4v.5h-4.2v-.5h.4c.8 0 1.2-.4 1.2-1.4V7.5c0-.5-.4-.9-.9-.9h-.8v-.5h4.7l3 6.9 2.9-6.9h4.6z"/>
  </g>
</svg>